<svg xmlns="http://www.w3.org/2000/svg" xmlns:xlink="http://www.w3.org/1999/xlink" width="33.968" height="30.837" viewBox="0 0 33.968 30.837">
  <defs>
    <clipPath id="clip-path">
      <rect id="Rectangle_10702" data-name="Rectangle 10702" width="29.617" height="25.657" fill="#f16e00"/>
    </clipPath>
  </defs>
  <g id="Component_83_1" data-name="Component 83 – 1" opacity="0.996">
    <g id="Group_39555" data-name="Group 39555" transform="translate(4.896 0) rotate(11)">
      <g id="Group_39554" data-name="Group 39554" transform="translate(0 0)" clip-path="url(#clip-path)">
        <path id="Path_201714" data-name="Path 201714" d="M.119,14.58A12.747,12.747,0,0,1,8.287.878a12.511,12.511,0,0,1,12.336,1.78c2.6,1.911,5.154,3.883,7.729,5.83a3,3,0,0,1,.6,4.339C26.969,15.437,24.994,18.054,23,20.65a12.273,12.273,0,0,1-6.257,4.375A12.559,12.559,0,0,1,5.416,23.28,12.335,12.335,0,0,1,.586,16.655c-.21-.675-.341-1.375-.508-2.065l.042-.009m9.919-4.07,6.339-2.631c.194,1.412.385,2.8.577,4.2-.044,0-.076,0-.107,0A2.357,2.357,0,1,0,19.24,14.17c-.381-2.851-.778-5.7-1.172-8.545a1.325,1.325,0,0,0-.439-.829,1.473,1.473,0,0,0-1.675-.232Q12.508,5.99,9.062,7.405l-1.337.555q.558,4.058,1.116,8.108a6.989,6.989,0,0,0-.715.1,2.357,2.357,0,0,0-1.742,2.709,2.383,2.383,0,0,0,4.7-.8l-1.013-7.349c-.009-.065-.018-.131-.029-.216M21.612,7.051c.414,3,.822,5.977,1.236,8.982l4.283-5.164L21.612,7.051" transform="translate(0 0)" fill="#f16e00"/>
      </g>
    </g>
  </g>
</svg>
